{"title":"BZN - Dance Dance","uid":6456599,"size":143769600,"categoryP":"video","categoryS":"music_videos","magnet":"?xt=urn:btih:a7ed60cb211d0aaf8a1a5e45aec540ad7ce12b42&amp;dn=BZN+-+Dance+Dance&amp;tr=udp%3A%2F%2Ftracker.openbittorrent.com%3A80&amp;tr=udp%3A%2F%2Fopen.demonii.com%3A1337&amp;tr=udp%3A%2F%2Ftracker.coppersurfer.tk%3A6969&amp;tr=udp%3A%2F%2Fexodus.desync.com%3A6969","seeders":1,"leechers":0,"uploader":null,"files":1,"time":1307609881,"description":"   General\n      Complete name: BZN - Dance Dance.mpg\n      Format : MPEG-PS\n      File size : 137 MiB\n      Duration : 2mn 46s\n      Overall bit rate : 6 927 Kbps\n   Video #224\n      ID : 224 (0xE0)\n      Format : MPEG Video\n      Format version : Version 2\n      Format profile : Main@Main\n      Format settings, Matrix : Default\n      Duration : 2mn 46s\n      Bit rate mode : Variable\n      Bit rate : 6 428 Kbps\n      Nominal bit rate : 9 500 Kbps\n      Width : 720 pixels\n      Height : 576 pixels\n      Display aspect ratio : 4:3\n      Frame rate : 25.000 fps\n      Standard : PAL\n      Colorimetry : 4:2:0\n      Scan type : Interlaced\n      Scan order : Bottom Field First\n      Bits/(Pixel*Frame) : 0.620\n      Stream size : 127 MiB (93%)\n   Audio #192\n      ID : 192 (0xC0)\n      Format : MPEG Audio\n      Format version : Version 1\n      Format profile : Layer 2\n      Duration : 2mn 46s\n      Bit rate mode : Constant\n      Bit rate : 224 Kbps\n      Channel(s) : 2 channels\n      Sampling rate : 48.0 KHz\n      Resolution : 16 bits\n      Stream size : 4.43 MiB (3%)","torrent":{"xt":"urn:btih:a7ed60cb211d0aaf8a1a5e45aec540ad7ce12b42","amp;dn":"BZN+-+Dance+Dance","amp;tr":["udp%3A%2F%2Ftracker.openbittorrent.com%3A80","udp%3A%2F%2Fopen.demonii.com%3A1337","udp%3A%2F%2Ftracker.coppersurfer.tk%3A6969","udp%3A%2F%2Fexodus.desync.com%3A6969"],"infoHash":"a7ed60cb211d0aaf8a1a5e45aec540ad7ce12b42","infoHashBuffer":{"type":"Buffer","data":[167,237,96,203,33,29,10,175,138,26,94,69,174,197,64,173,124,225,43,66]},"announce":[],"urlList":[]}}